<?xml version="1.0" encoding="UTF-8" standalone="no"?>
<!DOCTYPE svg PUBLIC "-//W3C//DTD SVG 1.1//EN"
 "http://www.w3.org/Graphics/SVG/1.1/DTD/svg11.dtd">
<!-- Generated by graphviz version 2.38.0 (20140413.2041)
 -->
<!-- Title: G Pages: 1 -->
<svg width="829pt" height="1152pt"
 viewBox="0.00 0.00 828.56 1152.00" xmlns="http://www.w3.org/2000/svg" xmlns:xlink="http://www.w3.org/1999/xlink">
<g id="graph0" class="graph" transform="scale(1 1) rotate(0) translate(4 1148)">
<title>G</title>
<polygon fill="white" stroke="none" points="-4,4 -4,-1148 824.561,-1148 824.561,4 -4,4"/>
<g id="clust1" class="cluster"><title>cluster_Global</title>
<path fill="none" stroke="gray" d="M338.821,-260C338.821,-260 800.561,-260 800.561,-260 806.561,-260 812.561,-266 812.561,-272 812.561,-272 812.561,-1124 812.561,-1124 812.561,-1130 806.561,-1136 800.561,-1136 800.561,-1136 338.821,-1136 338.821,-1136 332.821,-1136 326.821,-1130 326.821,-1124 326.821,-1124 326.821,-272 326.821,-272 326.821,-266 332.821,-260 338.821,-260"/>
<text text-anchor="middle" x="569.691" y="-1123.2" font-family="Times,serif" font-size="11.00" fill="gray">Global</text>
</g>
<g id="clust2" class="cluster"><title>cluster_\App</title>
<path fill="none" stroke="gray" d="M346.821,-268C346.821,-268 792.561,-268 792.561,-268 798.561,-268 804.561,-274 804.561,-280 804.561,-280 804.561,-1096 804.561,-1096 804.561,-1102 798.561,-1108 792.561,-1108 792.561,-1108 346.821,-1108 346.821,-1108 340.821,-1108 334.821,-1102 334.821,-1096 334.821,-1096 334.821,-280 334.821,-280 334.821,-274 340.821,-268 346.821,-268"/>
<text text-anchor="middle" x="569.691" y="-1095.2" font-family="Times,serif" font-size="11.00" fill="gray">App</text>
</g>
<g id="clust3" class="cluster"><title>cluster_\App\View</title>
<path fill="none" stroke="gray" d="M656.561,-686C656.561,-686 712.561,-686 712.561,-686 718.561,-686 724.561,-692 724.561,-698 724.561,-698 724.561,-746 724.561,-746 724.561,-752 718.561,-758 712.561,-758 712.561,-758 656.561,-758 656.561,-758 650.561,-758 644.561,-752 644.561,-746 644.561,-746 644.561,-698 644.561,-698 644.561,-692 650.561,-686 656.561,-686"/>
<text text-anchor="middle" x="684.561" y="-745.2" font-family="Times,serif" font-size="11.00" fill="gray">View</text>
</g>
<g id="clust4" class="cluster"><title>cluster_\App\Controller</title>
<path fill="none" stroke="gray" d="M354.821,-766C354.821,-766 784.561,-766 784.561,-766 790.561,-766 796.561,-772 796.561,-778 796.561,-778 796.561,-1068 796.561,-1068 796.561,-1074 790.561,-1080 784.561,-1080 784.561,-1080 354.821,-1080 354.821,-1080 348.821,-1080 342.821,-1074 342.821,-1068 342.821,-1068 342.821,-778 342.821,-778 342.821,-772 348.821,-766 354.821,-766"/>
<text text-anchor="middle" x="569.691" y="-1067.2" font-family="Times,serif" font-size="11.00" fill="gray">Controller</text>
</g>
<g id="clust5" class="cluster"><title>cluster_\App\Controller\Component</title>
<path fill="none" stroke="gray" d="M592.561,-774C592.561,-774 776.561,-774 776.561,-774 782.561,-774 788.561,-780 788.561,-786 788.561,-786 788.561,-888 788.561,-888 788.561,-894 782.561,-900 776.561,-900 776.561,-900 592.561,-900 592.561,-900 586.561,-900 580.561,-894 580.561,-888 580.561,-888 580.561,-786 580.561,-786 580.561,-780 586.561,-774 592.561,-774"/>
<text text-anchor="middle" x="684.561" y="-887.2" font-family="Times,serif" font-size="11.00" fill="gray">Component</text>
</g>
<g id="clust6" class="cluster"><title>cluster_\App\Console</title>
<path fill="none" stroke="gray" d="M650.061,-606C650.061,-606 719.061,-606 719.061,-606 725.061,-606 731.061,-612 731.061,-618 731.061,-618 731.061,-666 731.061,-666 731.061,-672 725.061,-678 719.061,-678 719.061,-678 650.061,-678 650.061,-678 644.061,-678 638.061,-672 638.061,-666 638.061,-666 638.061,-618 638.061,-618 638.061,-612 644.061,-606 650.061,-606"/>
<text text-anchor="middle" x="684.561" y="-665.2" font-family="Times,serif" font-size="11.00" fill="gray">Console</text>
</g>
<g id="clust7" class="cluster"><title>cluster_\App\Model</title>
<path fill="none" stroke="gray" d="M615.061,-356C615.061,-356 754.061,-356 754.061,-356 760.061,-356 766.061,-362 766.061,-368 766.061,-368 766.061,-586 766.061,-586 766.061,-592 760.061,-598 754.061,-598 754.061,-598 615.061,-598 615.061,-598 609.061,-598 603.061,-592 603.061,-586 603.061,-586 603.061,-368 603.061,-368 603.061,-362 609.061,-356 615.061,-356"/>
<text text-anchor="middle" x="684.561" y="-585.2" font-family="Times,serif" font-size="11.00" fill="gray">Model</text>
</g>
<g id="clust8" class="cluster"><title>cluster_\App\Model\Table</title>
<path fill="none" stroke="gray" d="M623.061,-498C623.061,-498 746.061,-498 746.061,-498 752.061,-498 758.061,-504 758.061,-510 758.061,-510 758.061,-558 758.061,-558 758.061,-564 752.061,-570 746.061,-570 746.061,-570 623.061,-570 623.061,-570 617.061,-570 611.061,-564 611.061,-558 611.061,-558 611.061,-510 611.061,-510 611.061,-504 617.061,-498 623.061,-498"/>
<text text-anchor="middle" x="684.561" y="-557.2" font-family="Times,serif" font-size="11.00" fill="gray">Table</text>
</g>
<g id="clust9" class="cluster"><title>cluster_\App\Model\Entity</title>
<path fill="none" stroke="gray" d="M643.061,-364C643.061,-364 726.061,-364 726.061,-364 732.061,-364 738.061,-370 738.061,-376 738.061,-376 738.061,-478 738.061,-478 738.061,-484 732.061,-490 726.061,-490 726.061,-490 643.061,-490 643.061,-490 637.061,-490 631.061,-484 631.061,-478 631.061,-478 631.061,-376 631.061,-376 631.061,-370 637.061,-364 643.061,-364"/>
<text text-anchor="middle" x="684.561" y="-477.2" font-family="Times,serif" font-size="11.00" fill="gray">Entity</text>
</g>
<g id="clust10" class="cluster"><title>cluster_\App\Shell</title>
<path fill="none" stroke="gray" d="M639.561,-276C639.561,-276 729.561,-276 729.561,-276 735.561,-276 741.561,-282 741.561,-288 741.561,-288 741.561,-336 741.561,-336 741.561,-342 735.561,-348 729.561,-348 729.561,-348 639.561,-348 639.561,-348 633.561,-348 627.561,-342 627.561,-336 627.561,-336 627.561,-288 627.561,-288 627.561,-282 633.561,-276 639.561,-276"/>
<text text-anchor="middle" x="684.561" y="-335.2" font-family="Times,serif" font-size="11.00" fill="gray">Shell</text>
</g>
<!-- \\App\\View\\AppView -->
<g id="node1" class="node"><title>\\App\\View\\AppView</title>
<polygon fill="none" stroke="black" points="716.561,-730 652.561,-730 652.561,-694 716.561,-694 716.561,-730"/>
<text text-anchor="middle" x="684.561" y="-709.2" font-family="Courier,monospace" font-size="11.00">AppView</text>
</g>
<!-- \\Cake\\View\\View -->
<g id="node13" class="node"><title>\\Cake\\View\\View</title>
<ellipse fill="none" stroke="black" cx="402.821" cy="-180" rx="74.187" ry="18"/>
<text text-anchor="middle" x="402.821" y="-176.3" font-family="Times,serif" font-size="14.00" fill="gray">\Cake\View\View</text>
</g>
<!-- \\App\\View\\AppView&#45;&gt;\\Cake\\View\\View -->
<g id="edge1" class="edge"><title>\\App\\View\\AppView&#45;&gt;\\Cake\\View\\View</title>
<path fill="none" stroke="black" d="M652.196,-711.515C628.882,-709.375 598.178,-702.469 580.561,-682 441.602,-520.545 659.382,-365.048 516.561,-207 508.096,-197.633 497.01,-191.235 485.096,-186.914"/>
<polygon fill="none" stroke="black" points="485.987,-183.525 475.398,-183.877 483.895,-190.205 485.987,-183.525"/>
</g>
<!-- \\App\\Controller\\Component\\ShopifyCurlComponent -->
<g id="node2" class="node"><title>\\App\\Controller\\Component\\ShopifyCurlComponent</title>
<polygon fill="none" stroke="black" points="760.561,-872 608.561,-872 608.561,-836 760.561,-836 760.561,-872"/>
<text text-anchor="middle" x="684.561" y="-851.2" font-family="Courier,monospace" font-size="11.00">ShopifyCurlComponent</text>
</g>
<!-- \\Cake\\Controller\\Component -->
<g id="node14" class="node"><title>\\Cake\\Controller\\Component</title>
<ellipse fill="none" stroke="black" cx="402.821" cy="-234" rx="113.98" ry="18"/>
<text text-anchor="middle" x="402.821" y="-230.3" font-family="Times,serif" font-size="14.00" fill="gray">\Cake\Controller\Component</text>
</g>
<!-- \\App\\Controller\\Component\\ShopifyCurlComponent&#45;&gt;\\Cake\\Controller\\Component -->
<g id="edge2" class="edge"><title>\\App\\Controller\\Component\\ShopifyCurlComponent&#45;&gt;\\Cake\\Controller\\Component</title>
<path fill="none" stroke="black" d="M608.379,-844.113C598.097,-840.105 588.4,-834.583 580.561,-827 414.555,-666.432 402.724,-357.335 403.194,-262.419"/>
<polygon fill="none" stroke="black" points="406.696,-262.21 403.299,-252.175 399.696,-262.138 406.696,-262.21"/>
</g>
<!-- \\App\\Controller\\Component\\ShopifyCarrierAPIComponent -->
<g id="node3" class="node"><title>\\App\\Controller\\Component\\ShopifyCarrierAPIComponent</title>
<polygon fill="none" stroke="black" points="780.561,-818 588.561,-818 588.561,-782 780.561,-782 780.561,-818"/>
<text text-anchor="middle" x="684.561" y="-797.2" font-family="Courier,monospace" font-size="11.00">ShopifyCarrierAPIComponent</text>
</g>
<!-- \\App\\Controller\\Component\\ShopifyCarrierAPIComponent&#45;&gt;\\Cake\\Controller\\Component -->
<g id="edge3" class="edge"><title>\\App\\Controller\\Component\\ShopifyCarrierAPIComponent&#45;&gt;\\Cake\\Controller\\Component</title>
<path fill="none" stroke="black" d="M609.409,-781.971C598.741,-776.871 588.656,-770.345 580.561,-762 437.755,-614.782 410.26,-348.899 405.031,-262.18"/>
<polygon fill="none" stroke="black" points="408.518,-261.852 404.475,-252.06 401.529,-262.236 408.518,-261.852"/>
</g>
<!-- \\App\\Controller\\CarrierRatesController -->
<g id="node4" class="node"><title>\\App\\Controller\\CarrierRatesController</title>
<polygon fill="none" stroke="black" points="767.061,-944 602.061,-944 602.061,-908 767.061,-908 767.061,-944"/>
<text text-anchor="middle" x="684.561" y="-923.2" font-family="Courier,monospace" font-size="11.00">CarrierRatesController</text>
</g>
<!-- \\App\\Controller\\AppController -->
<g id="node5" class="node"><title>\\App\\Controller\\AppController</title>
<polygon fill="none" stroke="black" points="454.821,-998 350.821,-998 350.821,-962 454.821,-962 454.821,-998"/>
<text text-anchor="middle" x="402.821" y="-977.2" font-family="Courier,monospace" font-size="11.00">AppController</text>
</g>
<!-- \\App\\Controller\\CarrierRatesController&#45;&gt;\\App\\Controller\\AppController -->
<g id="edge4" class="edge"><title>\\App\\Controller\\CarrierRatesController&#45;&gt;\\App\\Controller\\AppController</title>
<path fill="none" stroke="black" d="M601.896,-941.764C558.188,-950.202 505.249,-960.421 465.101,-968.171"/>
<polygon fill="none" stroke="black" points="464.338,-964.753 455.183,-970.085 465.665,-971.626 464.338,-964.753"/>
</g>
<!-- \\Cake\\Controller\\Controller -->
<g id="node15" class="node"><title>\\Cake\\Controller\\Controller</title>
<ellipse fill="none" stroke="black" cx="108.54" cy="-980" rx="108.581" ry="18"/>
<text text-anchor="middle" x="108.54" y="-976.3" font-family="Times,serif" font-size="14.00" fill="gray">\Cake\Controller\Controller</text>
</g>
<!-- \\App\\Controller\\AppController&#45;&gt;\\Cake\\Controller\\Controller -->
<g id="edge5" class="edge"><title>\\App\\Controller\\AppController&#45;&gt;\\Cake\\Controller\\Controller</title>
<path fill="none" stroke="black" d="M350.575,-980C316.472,-980 270.222,-980 227.354,-980"/>
<polygon fill="none" stroke="black" points="227.117,-976.5 217.117,-980 227.117,-983.5 227.117,-976.5"/>
</g>
<!-- \\App\\Controller\\PagesController -->
<g id="node6" class="node"><title>\\App\\Controller\\PagesController</title>
<polygon fill="none" stroke="black" points="743.561,-1052 625.561,-1052 625.561,-1016 743.561,-1016 743.561,-1052"/>
<text text-anchor="middle" x="684.561" y="-1031.2" font-family="Courier,monospace" font-size="11.00">PagesController</text>
</g>
<!-- \\App\\Controller\\PagesController&#45;&gt;\\App\\Controller\\AppController -->
<g id="edge6" class="edge"><title>\\App\\Controller\\PagesController&#45;&gt;\\App\\Controller\\AppController</title>
<path fill="none" stroke="black" d="M625.258,-1022.75C578.318,-1013.68 512.538,-1000.99 464.88,-991.787"/>
<polygon fill="none" stroke="black" points="465.48,-988.338 454.998,-989.879 464.154,-995.211 465.48,-988.338"/>
</g>
<!-- \\App\\Controller\\ShopifyAPIController -->
<g id="node7" class="node"><title>\\App\\Controller\\ShopifyAPIController</title>
<polygon fill="none" stroke="black" points="760.561,-998 608.561,-998 608.561,-962 760.561,-962 760.561,-998"/>
<text text-anchor="middle" x="684.561" y="-977.2" font-family="Courier,monospace" font-size="11.00">ShopifyAPIController</text>
</g>
<!-- \\App\\Controller\\ShopifyAPIController&#45;&gt;\\App\\Controller\\AppController -->
<g id="edge7" class="edge"><title>\\App\\Controller\\ShopifyAPIController&#45;&gt;\\App\\Controller\\AppController</title>
<path fill="none" stroke="black" d="M608.227,-980C563.378,-980 507.189,-980 465.079,-980"/>
<polygon fill="none" stroke="black" points="464.964,-976.5 454.964,-980 464.964,-983.5 464.964,-976.5"/>
</g>
<!-- \\App\\Console\\Installer -->
<g id="node8" class="node"><title>\\App\\Console\\Installer</title>
<polygon fill="none" stroke="black" points="723.061,-650 646.061,-650 646.061,-614 723.061,-614 723.061,-650"/>
<text text-anchor="middle" x="684.561" y="-629.2" font-family="Courier,monospace" font-size="11.00">Installer</text>
</g>
<!-- \\App\\Model\\Table\\CarrierRatesTable -->
<g id="node9" class="node"><title>\\App\\Model\\Table\\CarrierRatesTable</title>
<polygon fill="none" stroke="black" points="750.061,-542 619.061,-542 619.061,-506 750.061,-506 750.061,-542"/>
<text text-anchor="middle" x="684.561" y="-521.2" font-family="Courier,monospace" font-size="11.00">CarrierRatesTable</text>
</g>
<!-- \\Cake\\ORM\\Table -->
<g id="node16" class="node"><title>\\Cake\\ORM\\Table</title>
<ellipse fill="none" stroke="black" cx="402.821" cy="-126" rx="76.8869" ry="18"/>
<text text-anchor="middle" x="402.821" y="-122.3" font-family="Times,serif" font-size="14.00" fill="gray">\Cake\ORM\Table</text>
</g>
<!-- \\App\\Model\\Table\\CarrierRatesTable&#45;&gt;\\Cake\\ORM\\Table -->
<g id="edge8" class="edge"><title>\\App\\Model\\Table\\CarrierRatesTable&#45;&gt;\\Cake\\ORM\\Table</title>
<path fill="none" stroke="black" d="M618.908,-516.695C604.553,-512.196 590.631,-505.108 580.561,-494 476.989,-379.758 622.864,-264.704 516.561,-153 508.322,-144.343 497.841,-138.25 486.6,-133.996"/>
<polygon fill="none" stroke="black" points="487.605,-130.642 477.012,-130.84 485.416,-137.291 487.605,-130.642"/>
</g>
<!-- \\App\\Model\\Entity\\CarrierRate -->
<g id="node10" class="node"><title>\\App\\Model\\Entity\\CarrierRate</title>
<polygon fill="none" stroke="black" points="730.061,-462 639.061,-462 639.061,-426 730.061,-426 730.061,-462"/>
<text text-anchor="middle" x="684.561" y="-441.2" font-family="Courier,monospace" font-size="11.00">CarrierRate</text>
</g>
<!-- \\Cake\\ORM\\Entity -->
<g id="node17" class="node"><title>\\Cake\\ORM\\Entity</title>
<ellipse fill="none" stroke="black" cx="402.821" cy="-72" rx="77.9862" ry="18"/>
<text text-anchor="middle" x="402.821" y="-68.3" font-family="Times,serif" font-size="14.00" fill="gray">\Cake\ORM\Entity</text>
</g>
<!-- \\App\\Model\\Entity\\CarrierRate&#45;&gt;\\Cake\\ORM\\Entity -->
<g id="edge9" class="edge"><title>\\App\\Model\\Entity\\CarrierRate&#45;&gt;\\Cake\\ORM\\Entity</title>
<path fill="none" stroke="black" d="M638.83,-442.713C618.392,-439.78 595.47,-432.796 580.561,-417 481.605,-312.157 616.627,-202.783 516.561,-99 508.511,-90.6515 498.374,-84.6934 487.496,-80.4725"/>
<polygon fill="none" stroke="black" points="488.374,-77.075 477.78,-77.194 486.136,-83.7075 488.374,-77.075"/>
</g>
<!-- \\App\\Model\\Entity\\Shops -->
<g id="node11" class="node"><title>\\App\\Model\\Entity\\Shops</title>
<polygon fill="none" stroke="black" points="711.561,-408 657.561,-408 657.561,-372 711.561,-372 711.561,-408"/>
<text text-anchor="middle" x="684.561" y="-387.2" font-family="Courier,monospace" font-size="11.00">Shops</text>
</g>
<!-- \\App\\Model\\Entity\\Shops&#45;&gt;\\Cake\\ORM\\Entity -->
<g id="edge10" class="edge"><title>\\App\\Model\\Entity\\Shops&#45;&gt;\\Cake\\ORM\\Entity</title>
<path fill="none" stroke="black" d="M657.34,-387.179C633.91,-383.262 600.318,-373.964 580.561,-352 502.992,-265.768 599.095,-180.492 516.561,-99 508.253,-90.7972 497.922,-84.9255 486.91,-80.7497"/>
<polygon fill="none" stroke="black" points="487.686,-77.3197 477.092,-77.5006 485.486,-83.9652 487.686,-77.3197"/>
</g>
<!-- \\App\\Shell\\ConsoleShell -->
<g id="node12" class="node"><title>\\App\\Shell\\ConsoleShell</title>
<polygon fill="none" stroke="black" points="733.561,-320 635.561,-320 635.561,-284 733.561,-284 733.561,-320"/>
<text text-anchor="middle" x="684.561" y="-299.2" font-family="Courier,monospace" font-size="11.00">ConsoleShell</text>
</g>
<!-- \\Cake\\Console\\Shell -->
<g id="node18" class="node"><title>\\Cake\\Console\\Shell</title>
<ellipse fill="none" stroke="black" cx="402.821" cy="-18" rx="83.3857" ry="18"/>
<text text-anchor="middle" x="402.821" y="-14.3" font-family="Times,serif" font-size="14.00" fill="gray">\Cake\Console\Shell</text>
</g>
<!-- \\App\\Shell\\ConsoleShell&#45;&gt;\\Cake\\Console\\Shell -->
<g id="edge11" class="edge"><title>\\App\\Shell\\ConsoleShell&#45;&gt;\\Cake\\Console\\Shell</title>
<path fill="none" stroke="black" d="M677.312,-283.999C659.934,-236.732 606.32,-108.379 516.561,-45 507.278,-38.4455 496.606,-33.4688 485.609,-29.6928"/>
<polygon fill="none" stroke="black" points="486.476,-26.2973 475.888,-26.6742 484.4,-32.9824 486.476,-26.2973"/>
</g>
</g>
</svg>
